<svg version="1.0" xmlns="http://www.w3.org/2000/svg"
 width="2500.000000pt" height="2500.000000pt" viewBox="0 0 2500.000000 2500.000000"
 preserveAspectRatio="xMidYMid meet">
<metadata>
Created by potrace 1.14, written by Peter Selinger 2001-2017
</metadata>
<g transform="translate(0.000000,2500.000000) scale(0.100000,-0.100000)"
fill="#000000" stroke="none">
<path d="M7389 19397 c-2 -3 -47 -7 -99 -10 -285 -18 -584 -111 -805 -249
-167 -105 -361 -293 -468 -455 -212 -318 -316 -697 -321 -1168 -1 -136 11
-391 19 -405 1 -3 6 -36 10 -75 3 -38 20 -141 36 -229 238 -1276 1060 -2747
2288 -4096 163 -179 612 -625 771 -766 717 -636 1486 -1150 2375 -1589 380
-187 721 -336 1080 -469 99 -37 190 -71 203 -77 22 -9 17 -15 -90 -106 -1491
-1274 -2951 -2221 -4046 -2625 -270 -99 -587 -178 -715 -178 -170 0 -317 128
-334 291 -11 110 67 433 177 734 169 461 456 1031 808 1605 143 234 439 677
623 933 90 126 170 237 177 247 12 17 4 25 -90 96 -296 225 -653 526 -901 762
-67 64 -136 129 -153 145 l-31 28 -155 -213 c-1234 -1702 -1907 -3105 -2012
-4191 -10 -101 -7 -438 4 -527 29 -228 79 -400 170 -586 229 -465 658 -777
1195 -868 103 -17 380 -38 422 -31 15 2 78 6 138 9 591 27 1426 308 2310 778
1356 720 2967 1923 4430 3308 696 659 1185 1134 1173 1141 -7 5 -23 9 -36 9
-24 0 -343 51 -462 74 -1984 384 -3827 1241 -5140 2390 -546 479 -1107 1103
-1557 1736 -578 810 -986 1687 -1104 2372 -16 89 -22 169 -23 288 -1 162 -1
166 27 218 73 139 212 205 380 182 724 -103 1884 -680 3109 -1547 l147 -104
203 182 c239 214 617 540 845 728 l163 134 -88 65 c-278 211 -873 618 -1192
817 -1241 775 -2287 1204 -3120 1280 -90 8 -335 16 -341 12z"/>
<path d="M17890 19397 c-3 -3 -48 -7 -100 -11 -364 -26 -853 -155 -1363 -360
-1500 -603 -3447 -1966 -5300 -3710 -132 -124 -1021 -972 -1181 -1126 l-28
-28 88 -12 c115 -15 418 -66 513 -86 537 -110 996 -232 1496 -398 1256 -418
2384 -1018 3294 -1750 448 -361 915 -824 1336 -1326 770 -918 1316 -1892 1535
-2735 62 -239 83 -376 84 -560 1 -183 -8 -217 -83 -297 -97 -106 -215 -129
-433 -84 -588 120 -1343 463 -2233 1015 -189 117 -618 403 -794 529 -63 45
-117 82 -120 82 -3 0 -47 -37 -96 -81 -208 -189 -598 -527 -847 -735 l-268
-223 78 -59 c457 -347 1195 -833 1712 -1129 941 -538 1730 -846 2445 -955 128
-19 188 -22 415 -22 245 0 275 2 402 27 404 79 725 262 963 547 273 329 414
763 418 1295 2 206 -5 322 -34 520 -84 586 -283 1187 -615 1855 -504 1014
-1296 2071 -2219 2961 -1004 968 -2272 1754 -3700 2293 -126 48 -230 88 -232
90 -1 1 66 61 150 132 1416 1207 2816 2123 3896 2548 338 133 707 229 850 221
116 -7 223 -81 279 -194 23 -49 27 -67 26 -141 -2 -200 -135 -630 -331 -1075
-298 -675 -769 -1462 -1360 -2272 -56 -78 -103 -144 -103 -146 0 -2 33 -28 73
-58 287 -211 635 -506 962 -815 l150 -142 60 82 c736 1001 1282 1901 1637
2700 330 743 496 1410 481 1936 -13 491 -162 880 -453 1184 -262 273 -570 429
-968 492 -89 14 -472 30 -482 21z"/>
</g>
</svg>
